<svg id="SvgjsSvg1001" width="288" height="288" xmlns="http://www.w3.org/2000/svg" version="1.1" xmlns:xlink="http://www.w3.org/1999/xlink" xmlns:svgjs="http://svgjs.com/svgjs"><defs id="SvgjsDefs1002"></defs><g id="SvgjsG1008" transform="matrix(1,0,0,1,0,0)"><svg xmlns="http://www.w3.org/2000/svg" width="288" height="288" viewBox="0 0 92 92"><path d="M70.7 64.3c1.8 1.8 1.8 4.6 0 6.4-.9.9-2 1.3-3.2 1.3-1.2 0-2.3-.4-3.2-1.3L46 52.4 27.7 70.7c-.9.9-2 1.3-3.2 1.3s-2.3-.4-3.2-1.3c-1.8-1.8-1.8-4.6 0-6.4L39.6 46 21.3 27.7c-1.8-1.8-1.8-4.6 0-6.4 1.8-1.8 4.6-1.8 6.4 0L46 39.6l18.3-18.3c1.8-1.8 4.6-1.8 6.4 0 1.8 1.8 1.8 4.6 0 6.4L52.4 46l18.3 18.3z" fill="#7a7a7a" class="color000 svgShape"></path></svg></g></svg>