<svg id="SvgjsSvg1001" width="288" height="288" xmlns="http://www.w3.org/2000/svg" version="1.1" xmlns:xlink="http://www.w3.org/1999/xlink" xmlns:svgjs="http://svgjs.com/svgjs"><defs id="SvgjsDefs1002"></defs><g id="SvgjsG1008" transform="matrix(1,0,0,1,0,0)"><svg xmlns="http://www.w3.org/2000/svg" data-name="Layer 1" viewBox="0 0 24 24" width="288" height="288"><path d="M17.92,11.62a1,1,0,0,0-.21-.33l-5-5a1,1,0,0,0-1.42,1.42L14.59,11H7a1,1,0,0,0,0,2h7.59l-3.3,3.29a1,1,0,0,0,0,1.42,1,1,0,0,0,1.42,0l5-5a1,1,0,0,0,.21-.33A1,1,0,0,0,17.92,11.62Z" fill="#ffffff" class="color000 svgShape"></path></svg></g></svg>