<svg xmlns="http://www.w3.org/2000/svg" data-name="Layer 1" viewBox="0 0 64 64"><rect width="34" height="58" x="15" y="3" fill="#94e6ff" rx="2" ry="2"/><path fill="gray" d="M16.87,3H47.13A1.87,1.87,0,0,1,49,4.87V10a0,0,0,0,1,0,0H15a0,0,0,0,1,0,0V4.87A1.87,1.87,0,0,1,16.87,3Z"/><path fill="#6b6b6b" d="M17,3H47a2,2,0,0,1,2,2V6a0,0,0,0,1,0,0H15a0,0,0,0,1,0,0V5A2,2,0,0,1,17,3Z"/><path fill="gray" d="M17,54H47a2,2,0,0,1,2,2v5a0,0,0,0,1,0,0H15a0,0,0,0,1,0,0V56A2,2,0,0,1,17,54Z" transform="rotate(180 32 57.5)"/><rect width="34" height="3" x="15" y="54" fill="#6b6b6b"/><path fill="#0a1827" d="M17,62H47a3,3,0,0,0,3-3V4.87A2.88,2.88,0,0,0,47.13,2H16.87A2.88,2.88,0,0,0,14,4.87V59A3,3,0,0,0,17,62ZM16,11H48V53H16ZM48,59a1,1,0,0,1-1,1H17a1,1,0,0,1-1-1V55H48ZM47,4a1,1,0,0,1,1,1V9H16V5a1,1,0,0,1,1-1Z"/><path fill="#0a1827" d="M29 7.5h6a1 1 0 0 0 0-2H29a1 1 0 0 0 0 2zM26 58.5H38a1 1 0 0 0 0-2H26a1 1 0 0 0 0 2z"/></svg>